<svg width="36" height="36" viewBox="0 0 36 36" fill="none" xmlns="http://www.w3.org/2000/svg">
<rect x="0.5" y="0.5" width="35" height="35" rx="17.5" stroke="#F3F2F1"/>
<path fill-rule="evenodd" clip-rule="evenodd" d="M12.333 22.6666C12.333 21.0098 13.6762 19.6666 15.333 19.6666H20.6663C22.3232 19.6666 23.6663 21.0098 23.6663 22.6666V24C23.6663 24.1841 23.5171 24.3333 23.333 24.3333C23.1489 24.3333 22.9997 24.1841 22.9997 24V22.6666C22.9997 21.378 21.955 20.3333 20.6663 20.3333H15.333C14.0443 20.3333 12.9997 21.378 12.9997 22.6666V24C12.9997 24.1841 12.8504 24.3333 12.6663 24.3333C12.4822 24.3333 12.333 24.1841 12.333 24V22.6666Z" fill="#414141"/>
<path fill-rule="evenodd" clip-rule="evenodd" d="M15 14.6666C15 13.0098 16.3431 11.6666 18 11.6666C19.6569 11.6666 21 13.0098 21 14.6666C21 16.3235 19.6569 17.6666 18 17.6666C16.3431 17.6666 15 16.3235 15 14.6666ZM18 12.3333C16.7113 12.3333 15.6667 13.378 15.6667 14.6666C15.6667 15.9553 16.7113 17 18 17C19.2887 17 20.3333 15.9553 20.3333 14.6666C20.3333 13.378 19.2887 12.3333 18 12.3333Z" fill="#414141"/>
</svg>
